<svg xmlns="http://www.w3.org/2000/svg" xmlns:xlink="http://www.w3.org/1999/xlink" version="1.1" width="256" height="256" viewBox="0 0 256 256" xml:space="preserve">
<g style="stroke: none; stroke-width: 0; stroke-dasharray: none; stroke-linecap: butt; stroke-linejoin: miter; stroke-miterlimit: 10; fill: none; fill-rule: nonzero; opacity: 1;" transform="translate(1.4065934065934016 1.4065934065934016) scale(2.81 2.81)">
	<path d="M 82.096 32.816 c -2.625 0 -4.979 -1.51 -6.185 -3.841 c -0.24 -0.465 -0.493 -0.927 -0.757 -1.384 c -0.264 -0.458 -0.538 -0.907 -0.82 -1.348 c -1.416 -2.21 -1.547 -5.004 -0.234 -7.277 c 1.907 -3.302 0.775 -7.524 -2.527 -9.431 l -9.145 -5.28 c -3.302 -1.907 -7.524 -0.775 -9.431 2.527 l -0.002 0.003 c -1.293 2.24 -3.729 3.56 -6.312 3.434 c -1.122 -0.055 -2.25 -0.055 -3.378 0 c -2.579 0.125 -5.009 -1.199 -6.3 -3.435 l -0.001 -0.002 c -1.907 -3.302 -6.129 -4.433 -9.431 -2.527 l -9.145 5.28 c -3.302 1.907 -4.433 6.129 -2.527 9.431 l 0.001 0.002 c 1.291 2.236 1.222 5.003 -0.176 7.173 c -0.612 0.95 -1.175 1.926 -1.689 2.926 c -1.183 2.3 -3.544 3.75 -6.13 3.75 H 7.904 C 4.091 32.816 1 35.907 1 39.72 V 50.28 c 0 3.813 3.091 6.904 6.904 6.904 l 0 0 c 2.625 0 4.979 1.51 6.185 3.841 c 0.24 0.465 0.493 0.926 0.757 1.384 c 0.264 0.458 0.538 0.907 0.82 1.348 c 1.416 2.21 1.547 5.004 0.234 7.277 c -1.907 3.302 -0.775 7.525 2.527 9.431 l 9.145 5.28 c 3.302 1.907 7.524 0.775 9.431 -2.527 l 0.002 -0.003 c 1.293 -2.24 3.729 -3.56 6.312 -3.434 c 1.123 0.055 2.25 0.055 3.378 0.001 c 2.579 -0.125 5.009 1.199 6.3 3.435 l 0.001 0.002 c 1.907 3.302 6.129 4.433 9.431 2.527 l 9.145 -5.28 c 3.302 -1.906 4.433 -6.129 2.527 -9.431 l -0.001 -0.002 c -1.291 -2.236 -1.222 -5.003 0.176 -7.173 c 0.612 -0.95 1.175 -1.926 1.689 -2.926 c 1.182 -2.3 3.544 -3.75 6.13 -3.75 h 0.003 c 3.813 0 6.904 -3.091 6.904 -6.904 V 39.72 C 89 35.907 85.909 32.816 82.096 32.816 z" style="stroke: none; stroke-width: 1; stroke-dasharray: none; stroke-linecap: butt; stroke-linejoin: miter; stroke-miterlimit: 10; fill: rgb(92,100,104); fill-rule: nonzero; opacity: 1;" transform=" matrix(1 0 0 1 0 0) " stroke-linecap="round"/>
	<ellipse cx="44.995999999999995" cy="44.995999999999995" rx="24.996" ry="24.996" style="stroke: none; stroke-width: 1; stroke-dasharray: none; stroke-linecap: butt; stroke-linejoin: miter; stroke-miterlimit: 10; fill: rgb(234,170,40); fill-rule: nonzero; opacity: 1;" transform=" matrix(0.7607 -0.6491 0.6491 0.7607 -18.441 39.976) "/>
	<path d="M 45.044 70.991 c -8.991 0 -17.747 -4.662 -22.557 -12.993 c -7.167 -12.414 -2.898 -28.344 9.515 -35.511 c 12.414 -7.166 28.345 -2.898 35.512 9.515 c 7.167 12.414 2.898 28.345 -9.516 35.512 l 0 0 C 53.915 69.871 49.451 70.991 45.044 70.991 z M 44.96 21.009 c -4.069 0 -8.188 1.034 -11.958 3.21 c -11.458 6.615 -15.398 21.32 -8.783 32.779 c 6.615 11.46 21.321 15.399 32.779 8.783 l 0 0 c 11.459 -6.615 15.399 -21.32 8.783 -32.779 C 61.342 25.313 53.259 21.009 44.96 21.009 z M 57.498 66.647 h 0.01 H 57.498 z" style="stroke: none; stroke-width: 1; stroke-dasharray: none; stroke-linecap: butt; stroke-linejoin: miter; stroke-miterlimit: 10; fill: rgb(0,0,0); fill-rule: nonzero; opacity: 1;" transform=" matrix(1 0 0 1 0 0) " stroke-linecap="round"/>
	<path d="M 58.989 87.668 c -2.723 0 -5.374 -1.406 -6.84 -3.919 c -0.007 -0.011 -0.014 -0.022 -0.021 -0.033 c -1.107 -1.918 -3.18 -3.042 -5.385 -2.936 c -1.156 0.055 -2.325 0.055 -3.476 0 c -2.22 -0.104 -4.29 1.016 -5.397 2.935 c -2.18 3.778 -7.024 5.074 -10.799 2.896 l -9.145 -5.28 c -3.774 -2.179 -5.072 -7.022 -2.894 -10.797 c 1.107 -1.918 1.027 -4.308 -0.209 -6.238 c -0.291 -0.452 -0.573 -0.915 -0.845 -1.387 c -0.272 -0.471 -0.531 -0.945 -0.779 -1.424 c -1.053 -2.037 -3.083 -3.302 -5.297 -3.302 C 3.545 58.184 0 54.638 0 50.279 V 39.72 c 0 -4.358 3.545 -7.904 7.904 -7.904 c 2.219 0 4.228 -1.229 5.245 -3.207 c 0.53 -1.03 1.114 -2.043 1.737 -3.01 c 1.2 -1.864 1.258 -4.214 0.15 -6.132 c -1.057 -1.831 -1.337 -3.96 -0.791 -6 c 0.546 -2.04 1.854 -3.744 3.683 -4.8 l 9.145 -5.28 c 3.774 -2.177 8.617 -0.881 10.797 2.894 c 1.108 1.92 3.172 3.042 5.386 2.938 c 1.152 -0.057 2.321 -0.055 3.476 0 c 2.229 0.113 4.29 -1.016 5.397 -2.935 c 1.058 -1.832 2.762 -3.139 4.802 -3.686 c 2.04 -0.547 4.17 -0.266 5.997 0.79 l 9.145 5.279 c 3.774 2.18 5.072 7.023 2.894 10.797 c -1.107 1.917 -1.026 4.307 0.21 6.237 c 0.291 0.454 0.572 0.916 0.845 1.387 c 0.271 0.472 0.532 0.947 0.779 1.426 c 1.053 2.036 3.082 3.3 5.296 3.3 c 4.358 0 7.904 3.545 7.904 7.904 v 10.559 c 0 4.358 -3.546 7.904 -7.904 7.904 c -2.219 0 -4.228 1.229 -5.244 3.207 c -0.527 1.024 -1.111 2.037 -1.737 3.01 c -1.2 1.864 -1.258 4.214 -0.149 6.132 c 2.18 3.776 0.881 8.62 -2.893 10.799 l -9.145 5.28 C 61.687 87.327 60.329 87.668 58.989 87.668 z M 31.014 4.332 c -1.001 0 -2.014 0.254 -2.941 0.79 l -9.145 5.28 c -1.366 0.789 -2.343 2.062 -2.751 3.585 c -0.408 1.523 -0.198 3.114 0.59 4.48 c 1.485 2.571 1.408 5.719 -0.2 8.217 c -0.588 0.913 -1.14 1.869 -1.641 2.842 c -1.361 2.647 -4.051 4.292 -7.019 4.292 C 4.648 33.816 2 36.465 2 39.72 v 10.559 c 0 3.256 2.648 5.904 5.904 5.904 c 2.965 0 5.676 1.68 7.073 4.383 c 0.233 0.45 0.478 0.897 0.735 1.343 c 0.257 0.444 0.522 0.88 0.796 1.308 c 1.642 2.563 1.741 5.749 0.259 8.317 c -1.627 2.819 -0.658 6.438 2.161 8.064 l 9.145 5.28 c 2.82 1.627 6.438 0.657 8.065 -2.161 c 1.485 -2.574 4.25 -4.071 7.229 -3.936 c 1.085 0.052 2.19 0.052 3.28 0 c 2.975 -0.138 5.709 1.352 7.196 3.902 c 0.007 0.011 0.014 0.022 0.021 0.033 c 1.627 2.819 5.246 3.787 8.064 2.161 l 9.145 -5.28 c 2.819 -1.627 3.788 -5.245 2.161 -8.064 c -1.485 -2.572 -1.408 -5.72 0.199 -8.216 c 0.591 -0.919 1.143 -1.875 1.64 -2.842 c 1.361 -2.648 4.052 -4.293 7.021 -4.293 c 3.259 0 5.907 -2.648 5.907 -5.904 V 39.72 c 0 -3.255 -2.648 -5.904 -5.904 -5.904 c -2.965 0 -5.675 -1.679 -7.073 -4.382 c -0.233 -0.452 -0.479 -0.9 -0.734 -1.344 c -0.257 -0.444 -0.522 -0.88 -0.796 -1.309 c -1.642 -2.562 -1.741 -5.749 -0.259 -8.316 c 1.628 -2.819 0.658 -6.437 -2.161 -8.065 l -9.145 -5.279 c -1.365 -0.789 -2.956 -0.998 -4.479 -0.59 c -1.523 0.408 -2.797 1.385 -3.585 2.751 c -1.486 2.574 -4.262 4.082 -7.229 3.936 c -1.088 -0.054 -2.193 -0.053 -3.281 0 c -2.961 0.145 -5.73 -1.364 -7.214 -3.934 C 35.045 5.391 33.056 4.332 31.014 4.332 z" style="stroke: none; stroke-width: 1; stroke-dasharray: none; stroke-linecap: butt; stroke-linejoin: miter; stroke-miterlimit: 10; fill: rgb(0,0,0); fill-rule: nonzero; opacity: 1;" transform=" matrix(1 0 0 1 0 0) " stroke-linecap="round"/>
	<path d="M 38.707 54 c -0.552 0 -1 -0.447 -1 -1 V 40.45 c 0 -1.351 -1.099 -2.45 -2.45 -2.45 h -2.032 c -1.351 0 -2.45 1.099 -2.45 2.45 V 53 c 0 0.553 -0.448 1 -1 1 s -1 -0.447 -1 -1 V 40.45 c 0 -2.454 1.996 -4.45 4.45 -4.45 h 2.032 c 2.454 0 4.45 1.996 4.45 4.45 V 53 C 39.707 53.553 39.259 54 38.707 54 z" style="stroke: none; stroke-width: 1; stroke-dasharray: none; stroke-linecap: butt; stroke-linejoin: miter; stroke-miterlimit: 10; fill: rgb(0,0,0); fill-rule: nonzero; opacity: 1;" transform=" matrix(1 0 0 1 0 0) " stroke-linecap="round"/>
	<path d="M 38.707 46 h -8.931 c -0.552 0 -1 -0.448 -1 -1 s 0.448 -1 1 -1 h 8.931 c 0.552 0 1 0.448 1 1 S 39.259 46 38.707 46 z" style="stroke: none; stroke-width: 1; stroke-dasharray: none; stroke-linecap: butt; stroke-linejoin: miter; stroke-miterlimit: 10; fill: rgb(0,0,0); fill-rule: nonzero; opacity: 1;" transform=" matrix(1 0 0 1 0 0) " stroke-linecap="round"/>
	<path d="M 50.957 46 h -5.508 c -0.552 0 -1 -0.448 -1 -1 v -8 c 0 -0.552 0.448 -1 1 -1 h 5.508 c 2.238 0 4.06 1.821 4.06 4.059 v 1.882 C 55.017 44.179 53.195 46 50.957 46 z M 46.449 44 h 4.508 c 1.136 0 2.06 -0.924 2.06 -2.059 v -1.882 c 0 -1.135 -0.924 -2.059 -2.06 -2.059 h -4.508 V 44 z" style="stroke: none; stroke-width: 1; stroke-dasharray: none; stroke-linecap: butt; stroke-linejoin: miter; stroke-miterlimit: 10; fill: rgb(0,0,0); fill-rule: nonzero; opacity: 1;" transform=" matrix(1 0 0 1 0 0) " stroke-linecap="round"/>
	<path d="M 45.449 54 c -0.552 0 -1 -0.447 -1 -1 v -8 c 0 -0.552 0.448 -1 1 -1 c 0.553 0 1 0.448 1 1 v 8 C 46.449 53.553 46.002 54 45.449 54 z" style="stroke: none; stroke-width: 1; stroke-dasharray: none; stroke-linecap: butt; stroke-linejoin: miter; stroke-miterlimit: 10; fill: rgb(0,0,0); fill-rule: nonzero; opacity: 1;" transform=" matrix(1 0 0 1 0 0) " stroke-linecap="round"/>
	<path d="M 60.225 54 c -0.553 0 -1 -0.447 -1 -1 V 37 c 0 -0.552 0.447 -1 1 -1 s 1 0.448 1 1 v 16 C 61.225 53.553 60.777 54 60.225 54 z" style="stroke: none; stroke-width: 1; stroke-dasharray: none; stroke-linecap: butt; stroke-linejoin: miter; stroke-miterlimit: 10; fill: rgb(0,0,0); fill-rule: nonzero; opacity: 1;" transform=" matrix(1 0 0 1 0 0) " stroke-linecap="round"/>
</g>
</svg>