<svg xmlns="http://www.w3.org/2000/svg" width="360" height="360" viewBox="0 0 1200 800">

  <path id="Asik_Ahamed" data-name="Asik Ahamed" class="cls-1" d="M360.183,369.532l-0.326.163-0.162.651v0.488h0.488l0.651-.326,0.163-.651Zm1.465,46.142-0.814-.813v-1.384L359.7,411.2l-1.058-2.36-0.814-.489-0.651-4.557-1.139-2.93-1.709-3.5-1.14-2.848-1.058-3.174-0.814-2.035-1.139-3.336-1.3-2.279-1.058-2.36-0.488-2.36v-1.953l1.139-1.058,2.848-1.3,2.523-.488,0.651-.814,1.709-.163,1.3-1.383,0.489-.814,0.651-.489-0.651-.813-0.489-.9-3.011-.651h-3.011l-3.174.163-2.6-.814-2.2-1.464L342.686,364l-0.325-2.848-1.058-3.5-1.14-3.824-0.813-2.2v-1.465l-0.977-3.987-0.732-2.849-0.489-3.987-1.3-2.36-0.814-2.848-0.895-1.628-0.162-1.3-1.465-3.011,0.162-2.035-1.546-2.116-0.814-1.709-1.3-1.464-0.162-1.384-1.872-2.523-1.465-3.255-0.651-2.848-1.546-3.011-1.3-2.523-0.814-.488-1.872-2.849-2.2-.976-2.6.325-0.733,1.3-0.976.163-1.791,1.384h-1.058l-0.488,2.115,0.977,1.221-0.326,2.686,1.221,2.6-0.326,2.2,0.489,0.977-0.489,1.383-1.058,1.465-0.488,2.2-1.465,1.14-1.22,2.36-1.3,3.011L305.17,331.2l0.325,3.825,0.163,4.313-0.651,1.3-0.325,2.848-1.384,5.046-0.651,3.987-0.814,4.151,0.163,1.3-0.163,1.709-0.488,2.279-2.2,3.173-1.791,2.849-1.383,1.546v0.976l-2.441,3.012v0.651l0.325,1.139-0.488.651,0.163,2.2,0.325,3.174,0.977,2.848,1.464,3.174v2.116l-0.651,3.337,0.326,2.2-0.814.488-0.488,3.337-1.3,3.011-1.384.651-0.976,2.034-0.651,1.465-1.547.814v1.546l-0.976.489-0.488,1.139,0.162,1.872-0.813,2.115V417.3l0.813,1.221v1.627l0.814,0.651,1.14,1.384h1.546l0.814,0.651,2.685-.326,2.848-.488,3.011-2.685,1.791-2.2,1.546-2.767,0.977-3.5,0.488-3.337-0.488-4.882,0.488-3.011v-2.849l1.143-1.3v-2.36l0.652-3.662,0.9-.97,4.641-2.669,2.2-1.618,0.653-1.374,2.849-1.456,3.013-2.669,2.768-1.133,3.827-.646,3.745-.486,3.5,0.65,2.768,1.949,0.731,2.194,3.5,3.817,1.462,1.3,1.871,3.006,1.3,3,1.626,2.031,2.032,5.766,1.138,1.544,0.65,2.843,1.707,3.98,2.358,4.143,1.626,2.192,1.138,2.275,0.9,1.218,0.489,0.813,1.3-.488,0.651-.814Zm0.651,7.487L361.485,423l-0.488.488,0.163,0.488,0.488,0.163a1.442,1.442,0,0,0,.814-0.326Zm-65.267-61.523-0.163-.488-0.9.325-0.814.895v0.814l0.977,0.651,0.732-.488,0.163-.814v-0.9ZM286.7,402.979l-0.163-.488-0.895-.163-0.489.326v0.813l0.814,0.326,0.733-.326v-0.488Zm2.929,21.322H288.65l-0.814.163,0.488,1.22,1.14,0.163,0.162-.651v-0.9Zm41.041-57.292-0.651.488-2.2.489-3.257-.651-1.873-1.3-3.338-1.872-3.99-1.465-3.826-1.709-1.385-1.953,0.9-2.523-0.571-2.034,0.9-1.954v-2.2l0.327-4.638v-2.361l0.816-1.139v-0.895l0.327-2.93,0.652-3.336,0.327-1.058v-1.953l1.224-1.872-0.325-2.116,3.347-3.337,1.626,3.5,0.65,1.3,1.87,2.36,0.163,2.116,1.3,2.685,1.057,5.86,0.812,1.953-0.65,1.221,2.114,2.848-0.163,4.313,0.975,1.628,0.57,1.709,0.812,1.3,0.326,2.848,1.626,3.011,0.731,1.79Zm-6.7-2.36-0.326-.488-0.488.325h-0.814l-0.163.651,0.814,0.57,0.977-.244v-0.814Zm43.375-3.662-1.546-.326-0.976,1.3,1.3,1.057,1.22-.651v-1.383Zm36.62,37.191-0.489-2.686-0.164-2.36L402,391.505l-1.715-1.465-1.47-.9-1.552-.652-1.144-1.464-1.307-.733-1.551-.325-1.471-1.628-1.716-1.383-1.469-1.3-1.552-1.14-2.125-.488-1.551-1.384-0.98-1.79,0.653-2.36,1.553-1.628,1.633-1.22,2.37-1.14,2.531-.488,2.288,0.163,2.7,0.325,3.349-.325,2.042-.814,1.145-1.221,1.143-1.79V364l-0.489-1.139-1.3-1.872-1.22-.814-1.953-1.546-1.709-.977L394.851,357h-2.36l-2.848.651-3.174.977-2.442.407-2.2.163-1.872.976-1.79.488-0.488,1.709h-1.547l-1.139,1.465-0.325.977-1.384,1.872-1.3,1.953L371.007,371l-0.163,2.034-0.651,2.279,0.162,2.523,0.814,2.2,1.14,1.628,1.139,2.034,1.872,1.139,2.034,1.14,1.465,0.162,2.2,0.57,1.465,0.814,2.36,0.976,2.116,1.3,3.011,1.546,1.058,0.976,2.767,1.384,2.36,0.814,1.709,2.116,0.814,2.034v2.686l-0.163,2.278-1.221,1.221-1.627,1.3-2.2,1.546-1.627.977-2.2.651-2.686.651L384.841,409l-3.336-.325-2.035-.814-2.279-.9-2.2-.814-1.139-1.79V402l0.163-2.035,0.651-1.79-0.651-1.384-1.384.244-1.139,1.628-0.651,1.465-0.895,2.36v2.36l0.895,1.79,0.976,1.872,1.628,0.651,1.546,1.3,2.686,1.058,3.174,0.814,2.278,0.163,1.709,1.3h5.127l2.523-.163,1.79-.814,2.035-1.139,1.872-.651,2.115-1.872,1.709-1.628,1.14-2.2,0.813-2.523,0.326-2.278Zm15.382-73.649-1.139.488-0.407,1.465,1.384,0.325,1.3-.814Zm8.464,3.173-1.465-.162-2.034.162-2.93.814-3.011.326-2.035.325-2.36,1.3-1.139,1.384-0.814,1.79-0.325,1.546,0.325,1.628,0.814,2.2,1.872,2.279L416.173,343l1.627,1.139,1.384,0.895,2.36,0.163,2.115-.163,1.709-1.383,1.3-1.628,0.813-2.034v-2.36l-0.813-1.139-0.814-1.465V333.48L427,331.853l1.384-1.546,0.325-1.3Zm1.872,35.157-0.977-.895-1.221-.814-1.3-1.3h-1.871l-1.465-1.221-1.465-1.3-2.035-.488-1.871.488-1.3.488-0.977,1.546-0.651,1.953,0.651,1.872,0.163,1.953,0.488,3.011L415.521,371v6.51l0.326,1.791,0.977,3.173,0.976,1.058,1.384,0.814L420,385.971v2.034l0.163,2.36L420,392.481l0.163,3.174,0.326,1.383L420.811,402l0.57,2.034v2.279l0.325,1.709V410.3l1.14,2.523v1.546L423.659,416l0.326,1.465,0.488,1.872,0.733,1.627,0.651,0.407,0.976-.407,0.814-1.465L427,418.035v-1.547l-0.651-1.627-0.163-2.36-0.651-2.2-0.163-1.464v-3.825l-0.895-2.2,0.733-2.522-0.733-2.116-0.488-2.2v-2.848l0.326-2.6-0.326-3.5V384.18l0.326-2.848,0.162-2.686,0.733-1.953-0.57-2.36,0.895-2.685,0.326-2.686,0.488-1.953,1.139-.976,1.709-.9,0.489-.813v-1.465Zm57.453,50.13-1.468-1.465-0.977-1.709-2.039-1.139-1.957-1.709-1.874-.977-1.63-2.2-2.2-2.279-1.141-2.2-5.38-6.348-2.2-1.953-1.63-2.36-2.364-1.79-1.141-.895-1.141-1.628V382.96l0.652-1.3,1.142-1.628,2.364-2.2,2.12-1.872,2.2-1.465,1.713-1.465,1.63-.163,2.2-1.383,1.467-1.465,2.2-1.058,2.282-1.139,2.364-.814,1.142-.814,0.733-1.383-0.325-1.139-1.221-1.3-1.627-.732-1.872-.163-2.279.163-2.034.326-1.709.895-1.628.162-1.465,1.3-4.394,1.871-1.628,1.3-1.709.651-2.279,2.36-6.022,3.337,0.326-3.825-0.488-3.825,0.162-2.36v-8.3l-0.162-2.523,0.325-1.547v-4.15l1.872-2.848,1.139-3.337-0.325-2.6,0.813-3.662,0.814-2.523,0.163-2.848,1.383-2.686,0.977-3.011,0.651-2.278,0.814-2.36-0.163-2.2-0.814-1.953-1.465-2.36L458,310.694l-2.36-1.383-1.628-.814-2.522-.489-2.279.814-1.872,2.2-1.627,2.115-1.709,1.872-0.977,2.36,0.488,3.337-0.651,3.825,0.326,2.767v2.848l-0.163,4.394,1.79,2.767-0.488,5.046,0.977,3.825v4.964l0.162,3.011,0.9,2.686,0.162,3.173-0.162,1.628-0.163,3.825v3.5l0.651,3.011-0.326,2.849-0.162,3.011v4.638l0.162,3.825,1.628,3.744,0.651,5.452,0.244,4.476v4.557l-0.244,3.988,0.244,3.011-0.407,3.337v2.767l-0.814,3.011-1.627,3.5v2.848l0.325,1.709,1.3,0.326,1.547-.326,0.813-2.034,0.163-2.2,1.465-6.592,0.488-2.523,0.407-5.534,0.489-2.279v-7.568l0.325-2.116,0.488-11.149,2.849,3.093,3.336,3.173,2.116,1.384,1.872,1.627,2.36,1.709,1.953,1.628,1.139,2.035,3.011,4.313,2.2,2.034,1.627,2.279,2.035,1.546,0.651,1.465,2.523,1.383,2.36,0.977h2.115l1.221-.163,0.326-1.221ZM612.3,369.532l-0.326.163-0.162.651v0.488H612.3l0.651-.326,0.163-.651Zm1.465,46.142-0.814-.813v-1.384l-1.139-2.278-1.058-2.36-0.814-.489-0.651-4.557-1.14-2.93-1.709-3.5-1.139-2.848-1.058-3.174-0.814-2.035-1.139-3.336-1.3-2.279-1.058-2.36-0.488-2.36v-1.953l1.139-1.058,2.848-1.3,2.523-.488,0.651-.814,1.709-.163,1.3-1.383L610.1,371l0.651-.489L610.1,369.7l-0.489-.9-3.011-.651h-3.011l-3.174.163-2.6-.814-2.2-1.464L594.8,364l-0.325-2.848-1.058-3.5-1.14-3.824-0.814-2.2v-1.465l-0.976-3.987-0.733-2.849-0.488-3.987-1.3-2.36-0.814-2.848-0.9-1.628-0.163-1.3-1.464-3.011,0.162-2.035-1.546-2.116-0.814-1.709-1.3-1.464-0.163-1.384L579.1,316.96l-1.465-3.255-0.651-2.848-1.546-3.011-1.3-2.523-0.813-.488-1.872-2.849-2.2-.976-2.6.325-0.733,1.3-0.976.163-1.791,1.384h-1.058L561.6,306.3l0.977,1.221-0.326,2.686,1.221,2.6-0.326,2.2,0.488,0.977-0.488,1.383-1.058,1.465-0.488,2.2-1.465,1.14-1.221,2.36-1.3,3.011-0.325,3.662,0.325,3.825,0.163,4.313-0.651,1.3L556.8,343.49l-1.383,5.046-0.651,3.987-0.814,4.151,0.163,1.3-0.163,1.709-0.488,2.279-2.2,3.173-1.791,2.849-1.383,1.546v0.976l-2.442,3.012v0.651l0.326,1.139-0.488.651,0.162,2.2,0.326,3.174,0.977,2.848,1.464,3.174v2.116l-0.651,3.337,0.326,2.2-0.814.488-0.488,3.337-1.3,3.011-1.384.651-0.976,2.034-0.651,1.465-1.547.814v1.546l-0.976.489-0.488,1.139,0.162,1.872-0.814,2.115V417.3l0.814,1.221v1.627l0.814,0.651,1.139,1.384h1.547l0.813,0.651,2.686-.326,2.848-.488,3.011-2.685,1.791-2.2,1.546-2.767,0.976-3.5,0.489-3.337-0.489-4.882,0.489-3.011v-2.849l1.143-1.3v-2.36l0.652-3.662,0.895-.97,4.642-2.669,2.2-1.618,0.653-1.374,2.849-1.456,3.012-2.669,2.769-1.133,3.827-.646,3.745-.486,3.5,0.65,2.768,1.949,0.731,2.194,3.5,3.817,1.462,1.3,1.871,3.006,1.3,3,1.627,2.031,2.032,5.766,1.138,1.544,0.65,2.843,1.707,3.98,2.358,4.143,1.626,2.192,1.138,2.275,0.895,1.218,0.489,0.813,1.3-.488,0.651-.814Zm0.651,7.487L613.6,423l-0.488.488,0.162,0.488,0.489,0.163a1.433,1.433,0,0,0,.813-0.326Zm-65.267-61.523-0.163-.488-0.895.325-0.814.895v0.814l0.977,0.651,0.732-.488,0.163-.814v-0.9Zm-10.336,41.341-0.162-.488-0.895-.163-0.489.326v0.813l0.814,0.326,0.732-.326v-0.488Zm2.93,21.322h-0.976l-0.814.163,0.488,1.22,1.139,0.163,0.163-.651v-0.9Zm41.041-57.292-0.651.488-2.2.489-3.257-.651-1.873-1.3-3.338-1.872-3.99-1.465-3.826-1.709-1.385-1.953,0.9-2.523-0.571-2.034,0.9-1.954v-2.2l0.327-4.638v-2.361l0.816-1.139v-0.895l0.327-2.93,0.652-3.336,0.327-1.058v-1.953l1.224-1.872-0.325-2.116,3.347-3.337,1.626,3.5,0.65,1.3,1.87,2.36,0.163,2.116,1.3,2.685,1.056,5.86,0.813,1.953-0.65,1.221,2.113,2.848-0.162,4.313,0.975,1.628,0.57,1.709,0.812,1.3,0.326,2.848,1.626,3.011,0.731,1.79Zm-6.7-2.36-0.326-.488-0.488.325h-0.814l-0.163.651,0.814,0.57,0.977-.244v-0.814ZM665.6,410.466l-0.163-2.93-0.488-3.743,0.488-4.8v-3.5l-0.325-3.174v-3.336l-0.163-3.988-0.488-4.313v-3.337l-0.733-3.336-0.814-4.639-1.139-2.034-2.523-3.5-3.662-2.2-3.174-1.139-3.336-.489-4.965-.488-4.72,1.628-2.278,3.011-1.872,2.034v-8.707l0.163-3.988-0.163-3.662v-4.15l-0.163-3.825-0.814-3.011,0.651-3.988v-4.395l0.326-3.173,0.488-3.825,0.895-3.174,0.977-2.116,0.651-2.2-0.325-3.337-0.977-2.116-2.035-2.685-2.278-1.709-2.686-.163-2.848-.488-2.523.813-1.3,2.361-0.651,1.3-1.221-.489-0.813,2.035-1.791,2.523,0.163,2.441,0.651,3.337,0.651,3.173-0.163,1.547,0.651,1.464,0.489,3.174,1.383,2.849,0.163,2.848-0.733,1.465L622.8,338.2l-0.163,4.15v3.337l0.651,3.173,0.488,3.825,1.14,2.279-0.489,5.045,0.814,6.023,0.57,1.627-0.244,3.5,0.244,3.173,0.814,3.174,0.488,2.523v3.5l0.488,1.791,1.547,7,0.325,1.547v3.5l0.814,3.825,0.163,3.336,0.976,2.849-0.651,2.116,0.814,2.848,0.325,5.7,0.489,2.278-0.651,2.523,1.22,1.465,1.3,0.732,1.872-.163L637.12,423l0.651-1.465,0.163-2.686v-2.034l-0.326-2.849-0.163-2.766-0.976-6.348v-9.359l0.325-2.848v-2.279l0.163-3.011,0.488-2.848,0.651-1.546,0.651-2.93,1.547-4.395,2.115-3.336,1.709-.977,4.151-.814h2.2l1.139,1.14,2.2,1.872,0.488,2.441,1.79,2.848,1.058,1.546,1.465,1.628,0.651,2.035V386.7l0.814,1.953-0.488,1.546,0.325,2.279L661.941,395l-0.651,2.685,0.813,6.348,0.326,3.825,0.814,3.988-0.326,1.3-0.162,1.871-2.116,1.465,1.464,1.384h1.465l0.733-.57,1.3-1.79,0.488-2.523Zm52.327-17.334-1.546.733v0.976l0.895,0.326,0.977-.651Zm0.651,13.509-0.651-2.848-0.813-2.279-0.9-2.522-1.464-6.674-0.489-3.825-0.814-3.662,0.163-3.173-0.163-2.523-1.058-2.93-1.139-3.906-0.814-2.93-1.058-3.011L707.921,364l-1.465-1.465-2.849-1.872-2.522-.813-2.36-1.221-2.849-.814-3.987.326-4.639.895-2.523,1.139-2.685,2.2-2.442,1.3-2.2,1.79-1.79,2.36-1.709,2.034-0.489,1.791,0.163,2.034,1.465,1.465,2.034,1.058H679.6l2.849-.732h2.441l2.2-.326,1.791-1.139,2.034-.977h1.709l0.977-.163,2.685,0.163,3.337,0.977,3.255,3.011,1.546,2.116,1.3,2.36-0.651,1.709-1.627.488-1.547.651-3.173,1.628-2.442,1.546-2.848.651-2.523.325-2.848.489-2.116,1.546-2.035,1.79-1.464,2.523-1.547,2.686-0.488,2.6v2.36l0.163,3.5,1.139,2.2,1.546,1.953,2.523,1.546,2.767,1.139,2.36,0.326,1.709,0.488,1.628-.651,2.2-.651,2.441-.814,2.849-1.058,2.522-1.3,1.465-1.465,2.36-1.383,1.465-1.791,1.384-.895,0.976-.488,0.651,0.651,0.651,2.36,1.058,1.709,0.651,2.116,1.3,1.383h1.221l1.139-1.22,0.163-1.14Zm-7.487.326-0.976.569-0.407.977L711.094,409l0.651-.488ZM707.27,393.7l-0.163,2.278-1.384,1.709-1.3,2.116-1.872,1.221-3.824,2.6-1.628.407-1.221,1.3-2.6.651h-2.36l-2.2-.651L687.9,403.63v-1.953l0.651-1.546,0.326-1.628,1.22-1.871,0.977-1.465,1.546-1.14,1.79-.895,2.035-.325,2.116-1.14,2.034-.651,1.791-.814,2.034-.162,2.36,0.651,0.651,0.976Zm86.018-30.843-1.709-.895-0.813,1.871,0.813,1.3,2.2-.813Zm0.977,39.469L794.1,400.7l-0.163-2.2V395.98l-0.162-1.953-0.489-2.034-0.813-2.2-0.326-2.93-0.57-2.523v-2.034l-0.325-2.279v-2.36l-0.326-2.2-0.813-1.791-0.977-1.709-1.383-1.79-1.954-1.546-2.36-.814-1.627-.977-1.709-.162-1.628.325-1.872.651-1.627,1.3-1.709,1.058-1.465,1.628-1.546,2.034-1.3.814-1.14,1.465-0.162-2.116-0.57-2.36v-1.628l-0.814-2.034-1.465-1.465-1.871-1.058-2.116-.814-3.011.651L756.26,366.2l-2.115.651-2.361.977-2.2.325-0.814-1.464-0.976-1.221L746.251,364l-2.442-1.139-2.2-.895-3.011-.652-2.848-.325-1.954.651-2.685,1.221-0.814.976-0.976,1.465-0.57,2.2,2.034,3.988,0.977,2.36,0.814,2.36,0.407,1.953-0.407,2.36v3.174l0.732,3.174,0.163,3.662,0.488,3.825,0.163,3.825V402l0.651,3.336,0.488,3.825,1.221,3.662,0.814,1.139,1.139,0.9h1.872l1.953-.487,1.872-2.031,1.139-2.356v-3.655l-0.325-2.68v-2.924l0.488-3.168,0.325-3,0.489-3.817,1.383-3.656,1.139-3,1.384-2.68,1.465-2.194,1.79-2.273,1.546-1.544,1.465-1.3,2.035-.813,2.36-.324,1.465,0.812,0.976,2.274,0.488,2.518V384.4l0.245,2.355v2.6l0.162,3-0.162,2.843v6.171l-0.245,3.167v4.466l0.407,1.138,1.14,0.893h1.464l1.058-1.7,0.163-1.623,0.488-2.355v-3.815L768.63,400l-0.163-2.922,0.326-2.192,0.488-2.842,0.814-2.191,0.895-2.761,0.651-2.516,0.814-1.542,0.814-2.273,1.383-.812,2.442-1.7,2.034,0.325h1.953l2.2,0.136,1.3,0.271,1.546,0.326,1.465,1.709,1.058,1.79,0.957,7.243,0.478,2.6,0.639,1.872,0.479,3.011,0.319,3.011,0.719,2.278,0.478,1.709V407.7l1.517-.325,0.674-2.035,0.169-1.709ZM853.1,376.856l-0.814-2.848-1.3-1.709-2.36-2.116-2.523-1.546-9.684-4.8-3.5-.976-4.314-.489-3.173.163h-3.825l-3.011.488-2.442,1.3-2.36,2.034-2.034,2.848-1.14.163-1.464,1.3-0.733.977-0.814,2.034-0.814,1.791-0.651,2.685-0.651,3.174-0.244,3.011,0.407,2.686,1.139,3.5,1.791,4.313,2.034,4.964,0.977,0.733,1.383,1.953,1.628,1.546,2.2,1.465,3.174,2.686,3.5,2.278,3.012,1.546,3.662,0.814,3.662,0.163,2.441-.651,2.523-.977,2.685-1.383,2.523-1.3,1.465-.977,0.814-.9-0.163-.651h-1.465l-2.36.488-2.36.895-2.116.326-2.522.651H832.6l-2.279-.977-1.871-.895-3.5-1.79-1.79-1.709-3.5-3.825-1.872-2.279-0.977-1.871-0.325-3.5L817.3,389.8l1.79-.651,2.034-.163,3.011,0.325,3.825-.162,2.36-.652,2.849-.976,2.441-1.221,3.5-.814,3.825-.325,3.5-1.139,2.848-1.221,2.36-1.3,1.465-2.2v-2.442Zm-8.464,26.123h-1.22l-0.489,1.058,0.9,0.814,0.976-.814Zm-7.324-26.7-2.36.659-2.685.654-3.012.162h-2.766l-2.686-.651h-3.174l-1.872-.165-1.139.165-0.488-1.072,1.3-1.482,1.221-.66,2.115-1.567,2.36-.988,2.361-.66h2.6l2.685,0.33,2.36,0.989,2.116,1.072,1.384,1.484Zm72.917-63.792-4.476-2.278-3.662,1.139-3.5-2.034-3.987-.163-1.547,1.383-0.813,2.279-0.163,2.36v1.79l0.325,3.174,2.2,5.534,0.651,4.15,0.488,4.314v3.5L894.932,343v4.964l0.489,3.906,0.325,8.3-0.163,3.988-0.325,4.8,0.325,4.883-3.336-1.872-3.825-.651-2.523-1.465-2.279.163-3.336-.651-5.046,1.791-2.278,1.3L869.3,373.52l-3.173,3.011-1.547,4.476-1.139,2.522-0.976,4.964,0.813,4.639-0.162,3.337,1.467,2.523,1.142,2.848,2.039,2.2L868.9,406.8l1.549,1.221,2.529,1.3,1.141,2.2,3.181,0.326,4.486,1.3h3.181l4.648-1.628,2.2-.325,2.853-.733,1.306-1.3,1.223-1.79,1.305,2.6,0.652,3.011,0.815,5.534,0.9,1.79,0.158,2.523,0.471,2.2,1.417,1.14,1.372-.977,0.488-2.035-0.895-.813-0.651-2.36-0.814-9.685-0.651-4.8,0.326-5.371,0.325-3.093,0.489-3.5,0.488-4.883,0.163-4.15,0.325-3.825-0.651-9.033,0.9-3.825,0.326-5.453,0.325-4.557-0.162-2.848,0.325-4.639v-4.8l0.977-5.371,1.139-4.476,1.058-4.151,1.627-4.231,0.977-6.1,0.895-4.394Zm-32.471,42.888-2.523-1.384-3.011.163-1.139,2.2-0.651,5.127v1.709l0.325,2.849,2.36,1.627h1.791l2.2-.976-0.488-2.36v-1.3l1.465-1.057,0.813-4.314Zm17.66,42.155v4.8l-0.977.488,0.488,2.849-2.034-.326-2.442.163H888.1l-3.825.163-5.859-1.628-3.988-4.069-1.3-1.465-0.895-1.871-0.488-2.605,0.325-2.685,1.872-2.849,0.814-2.848,1.709-2.685,2.441-2.767,4.151-3.174,4.069-1.384h3.5l2.441,0.326,1.058,2.685,0.163,3.337,1.14,2.2,0.325,3.337v6.836Z"/>
</svg>
