<?xml version="1.0" standalone="no"?>
<svg xmlns:xlink="http://www.w3.org/1999/xlink" id="wave" style="transform:rotate(0deg); transition: 0.3s" viewBox="0 0 1440 490" version="1.1" xmlns="http://www.w3.org/2000/svg"><defs><linearGradient id="sw-gradient-0" x1="0" x2="0" y1="1" y2="0"><stop stop-color="rgba(52, 136, 146, 0.36)" offset="0%"/><stop stop-color="rgba(52, 136, 146, 0.36)" offset="100%"/></linearGradient></defs><path style="transform:translate(0, 0px); opacity:1" fill="url(#sw-gradient-0)" d="M0,0L80,49C160,98,320,196,480,228.7C640,261,800,229,960,187.8C1120,147,1280,98,1440,106.2C1600,114,1760,180,1920,212.3C2080,245,2240,245,2400,236.8C2560,229,2720,212,2880,236.8C3040,261,3200,327,3360,359.3C3520,392,3680,392,3840,375.7C4000,359,4160,327,4320,285.8C4480,245,4640,196,4800,187.8C4960,180,5120,212,5280,196C5440,180,5600,114,5760,122.5C5920,131,6080,212,6240,269.5C6400,327,6560,359,6720,367.5C6880,376,7040,359,7200,302.2C7360,245,7520,147,7680,155.2C7840,163,8000,278,8160,334.8C8320,392,8480,392,8640,392C8800,392,8960,392,9120,326.7C9280,261,9440,131,9600,73.5C9760,16,9920,33,10080,32.7C10240,33,10400,16,10560,81.7C10720,147,10880,294,11040,318.5C11200,343,11360,245,11440,196L11520,147L11520,490L11440,490C11360,490,11200,490,11040,490C10880,490,10720,490,10560,490C10400,490,10240,490,10080,490C9920,490,9760,490,9600,490C9440,490,9280,490,9120,490C8960,490,8800,490,8640,490C8480,490,8320,490,8160,490C8000,490,7840,490,7680,490C7520,490,7360,490,7200,490C7040,490,6880,490,6720,490C6560,490,6400,490,6240,490C6080,490,5920,490,5760,490C5600,490,5440,490,5280,490C5120,490,4960,490,4800,490C4640,490,4480,490,4320,490C4160,490,4000,490,3840,490C3680,490,3520,490,3360,490C3200,490,3040,490,2880,490C2720,490,2560,490,2400,490C2240,490,2080,490,1920,490C1760,490,1600,490,1440,490C1280,490,1120,490,960,490C800,490,640,490,480,490C320,490,160,490,80,490L0,490Z"/></svg>